<svg width="78" height="92" viewBox="0 0 78 92" fill="none" xmlns="http://www.w3.org/2000/svg">
<path d="M34.008 0.650368L76.1133 24.752C76.2954 24.8559 76.4466 25.0062 76.5518 25.1875C76.6569 25.3689 76.7121 25.5748 76.7117 25.7844V40.4985C76.7121 40.7057 76.6582 40.9094 76.5553 41.0893C76.4525 41.2692 76.3043 41.419 76.1256 41.5238C75.9467 41.6291 75.7435 41.6858 75.536 41.6882C75.3285 41.6907 75.124 41.6388 74.9427 41.5378L48.8708 27.0268C48.5948 26.8731 48.2692 26.8352 47.9653 26.9215C47.6615 27.0078 47.4044 27.2112 47.2504 27.487C47.1537 27.6636 47.102 27.8613 47.1 28.0627V42.46C47.1008 42.6668 47.1551 42.8698 47.2574 43.0495C47.3598 43.2291 47.5069 43.3793 47.6844 43.4854L75.8386 60.1469C76.1052 60.3051 76.326 60.5299 76.4794 60.7992C76.6328 61.0686 76.7135 61.3732 76.7135 61.6832V68.8574C76.7126 69.1895 76.6193 69.5148 76.4441 69.797C76.2689 70.0791 76.0186 70.3069 75.7214 70.4549L70.1308 73.2546C69.8598 73.3904 69.5587 73.4548 69.2559 73.4418C68.955 73.4291 68.662 73.3413 68.4037 73.1864L32.7866 51.6639C32.611 51.5586 32.4656 51.4097 32.3647 51.2315C32.2638 51.0533 32.2109 50.852 32.2109 50.6473V1.68274C32.21 1.4729 32.2643 1.26651 32.3684 1.08431C32.4728 0.901196 32.6245 0.749502 32.8076 0.645114C32.9893 0.539203 33.1958 0.483398 33.4061 0.483398C33.6163 0.483398 33.8228 0.539203 34.0045 0.645114L34.008 0.650368Z" fill="#111827" stroke="#1D1D1B" stroke-width="0.81" stroke-miterlimit="10"/>
<path d="M2.90092 18.4422L16.2344 25.9104C16.4173 26.0125 16.5695 26.1617 16.6753 26.3426C16.7843 26.5223 16.8446 26.7274 16.8503 26.9375L17.181 60.5178C17.1826 60.8256 17.264 61.1277 17.4174 61.3945C17.5708 61.6614 17.7908 61.8838 18.0559 62.0401L50.5741 81.1129C50.8356 81.2672 51.0533 81.4858 51.2064 81.748C51.3595 82.0102 51.443 82.3072 51.449 82.6107C51.4559 82.915 51.3849 83.216 51.2428 83.4852C51.1007 83.7544 50.8922 83.9828 50.6371 84.1488L40.3833 90.8173C40.1104 90.9939 39.7947 91.0931 39.4699 91.1041C39.145 91.1152 38.8233 91.0379 38.539 90.8803L2.05576 70.5196C1.77847 70.3645 1.54752 70.1383 1.38668 69.8643C1.22583 69.5902 1.1409 69.2783 1.14062 68.9606V19.4799C1.14287 19.1682 1.26697 18.8698 1.48638 18.6484C1.70579 18.427 2.0031 18.3003 2.31474 18.2953C2.51956 18.2927 2.72152 18.3434 2.90092 18.4422Z" fill="#111827" stroke="#1D1D1B" stroke-width="0.81" stroke-miterlimit="10"/>
</svg>
