<svg width="371" height="371" viewBox="0 0 371 371" fill="none" xmlns="http://www.w3.org/2000/svg">
<path d="M162.396 18.6123L316.795 106.992C317.463 107.373 318.018 107.924 318.403 108.589C318.789 109.254 318.991 110.01 318.99 110.778V164.734C318.991 165.494 318.793 166.241 318.416 166.901C318.039 167.56 317.496 168.11 316.84 168.494C316.185 168.88 315.439 169.088 314.678 169.097C313.918 169.106 313.168 168.916 312.503 168.546L216.898 115.334C215.886 114.77 214.692 114.631 213.578 114.948C212.464 115.264 211.521 116.01 210.956 117.021C210.601 117.669 210.412 118.394 210.404 119.132V171.927C210.407 172.685 210.606 173.43 210.982 174.089C211.357 174.747 211.897 175.298 212.547 175.687L315.788 236.784C316.766 237.364 317.575 238.189 318.138 239.177C318.7 240.164 318.996 241.281 318.996 242.418V268.726C318.993 269.943 318.651 271.136 318.008 272.171C317.366 273.206 316.448 274.041 315.358 274.584L294.858 284.85C293.864 285.348 292.76 285.584 291.649 285.537C290.546 285.49 289.472 285.168 288.525 284.6L157.918 205.678C157.274 205.292 156.741 204.745 156.371 204.092C156.001 203.439 155.806 202.7 155.807 201.95V22.398C155.803 21.6285 156.002 20.8716 156.384 20.2035C156.767 19.5321 157.323 18.9758 157.995 18.593C158.661 18.2046 159.418 18 160.189 18C160.96 18 161.717 18.2046 162.384 18.593L162.396 18.6123Z" fill="#F2A532"/>
<path d="M59.4549 85.2815L108.348 112.667C109.019 113.041 109.577 113.589 109.965 114.252C110.365 114.911 110.586 115.663 110.607 116.433L111.82 239.572C111.825 240.7 112.124 241.808 112.686 242.786C113.249 243.765 114.056 244.581 115.028 245.154L234.271 315.093C235.23 315.659 236.028 316.461 236.59 317.422C237.151 318.383 237.458 319.472 237.479 320.586C237.505 321.701 237.245 322.805 236.723 323.792C236.202 324.779 235.438 325.617 234.502 326.226L196.902 350.679C195.901 351.326 194.743 351.69 193.552 351.731C192.361 351.771 191.181 351.488 190.139 350.91L56.3558 276.248C55.339 275.679 54.4921 274.85 53.9023 273.845C53.3125 272.84 53.001 271.696 53 270.531V89.0865C53.0082 87.9436 53.4633 86.8492 54.2679 86.0375C55.0724 85.2257 56.1627 84.7609 57.3055 84.7425C58.0565 84.7333 58.7971 84.919 59.4549 85.2815Z" fill="#F39200"/>
</svg>
