<svg width="301" height="47" viewBox="0 0 301 47" fill="none" xmlns="http://www.w3.org/2000/svg">
<path d="M16.7035 0.0818124L38.102 12.4357C38.1948 12.4885 38.272 12.5653 38.3254 12.6583C38.3794 12.7516 38.4077 12.8576 38.4075 12.9656V20.5085C38.4074 20.6148 38.3796 20.7191 38.3272 20.8113C38.2747 20.9034 38.1993 20.9801 38.1083 21.0338C38.0177 21.088 37.9146 21.1171 37.8092 21.1184C37.7039 21.1197 37.6 21.0931 37.5081 21.0412L24.2617 13.6021C24.1217 13.5242 23.9569 13.5052 23.8031 13.5493C23.6493 13.5934 23.519 13.697 23.4407 13.8376C23.3921 13.9284 23.3661 14.0297 23.365 14.1329V21.5121C23.3649 21.6183 23.3922 21.7226 23.4444 21.8148C23.4967 21.907 23.5718 21.984 23.6624 22.0383L37.9688 30.5775C38.1046 30.6583 38.2172 30.7734 38.2954 30.9115C38.3736 31.0496 38.4148 31.2059 38.4148 31.3649V35.0444C38.4141 35.2148 38.3665 35.3817 38.2773 35.5264C38.1881 35.6711 38.0607 35.788 37.9095 35.864L35.0617 37.2963C34.9246 37.365 34.7725 37.3979 34.6194 37.3918C34.4664 37.3857 34.3173 37.3408 34.186 37.2613L16.0868 26.232C15.998 26.1777 15.9245 26.1014 15.8734 26.0102C15.8222 25.919 15.7952 25.8161 15.7949 25.7114V0.61166C15.7942 0.504178 15.822 0.398449 15.8752 0.305342C15.9287 0.212769 16.0051 0.135756 16.0969 0.0818124C16.1891 0.028213 16.2937 0 16.4002 0C16.5066 0 16.6112 0.028213 16.7035 0.0818124Z" fill="#F39200"/>
<path d="M0.903046 9.19837L7.6777 13.026C7.77105 13.0783 7.84884 13.1548 7.90301 13.2477C7.95672 13.3405 7.98592 13.4456 7.98784 13.5531L8.15568 30.7648C8.1577 30.923 8.20011 31.0779 8.27882 31.2146C8.3563 31.3537 8.46858 31.4698 8.60446 31.5513L25.1284 41.3204C25.2619 41.3992 25.3733 41.5111 25.4519 41.6455C25.5304 41.78 25.5735 41.9325 25.5771 42.0885C25.5808 42.2445 25.5447 42.3989 25.4724 42.537C25.4001 42.675 25.2939 42.792 25.1639 42.8768L19.9482 46.2942C19.8099 46.3849 19.6497 46.4358 19.4848 46.4413C19.3196 46.447 19.1559 46.4072 19.0114 46.3263L0.466118 35.8922C0.324969 35.813 0.207474 35.697 0.12588 35.5565C0.0445369 35.417 0.00111655 35.2583 1.47963e-06 35.0965V9.73374C-0.000233203 9.62689 0.0274531 9.52188 0.0802721 9.42926C0.133058 9.33676 0.208822 9.25972 0.300104 9.20573C0.391763 9.15236 0.495737 9.12427 0.601575 9.12427C0.707413 9.12427 0.811387 9.15236 0.903046 9.20573V9.19837Z" fill="#F39200"/>
<path d="M58.2051 32.5026H66.3307V34.9863H55.1758V11.5902H58.2042L58.2051 32.5026ZM77.5029 35.2899C75.7935 35.2899 74.2397 34.898 72.8417 34.1143C71.4691 33.3339 70.3395 32.1829 69.5798 30.7908C68.802 29.3355 68.4131 27.6574 68.4131 25.7563C68.4131 23.8761 68.8127 22.2203 69.6117 20.789C70.3836 19.3829 71.5391 18.2295 72.9411 17.4655C74.3398 16.6817 75.9051 16.2902 77.637 16.2908C79.3689 16.2914 80.9335 16.683 82.331 17.4655C83.7207 18.2182 84.8651 19.3599 85.6266 20.7531C86.4476 22.1875 86.8577 23.8552 86.8571 25.7563C86.8565 27.6574 86.436 29.3361 85.5956 30.7926C84.8033 32.1952 83.6377 33.3464 82.2306 34.1161C80.8113 34.8998 79.2354 35.2911 77.5029 35.2899ZM77.5029 32.6029C78.5725 32.6073 79.626 32.3407 80.5668 31.8275C81.5191 31.3129 82.2847 30.5409 82.8637 29.5112C83.4639 28.481 83.7637 27.2275 83.7631 25.7508C83.7625 24.2741 83.4739 23.0206 82.8974 21.9903C82.3209 20.9613 81.5663 20.2002 80.6334 19.7072C79.6967 19.2005 78.6502 18.9353 77.5872 18.9353C76.5243 18.9353 75.4778 19.2005 74.5411 19.7072C73.6289 20.1978 72.8967 20.9588 72.3446 21.9903C71.7924 23.0218 71.5157 24.2771 71.5145 25.7563C71.5145 27.2557 71.7809 28.5202 72.3136 29.5499C72.8688 30.5801 73.6012 31.3525 74.511 31.867C75.4317 32.3605 76.4603 32.6135 77.5029 32.6029ZM89.7104 25.7563C89.7104 23.8552 90.0877 22.1994 90.8424 20.789C91.5516 19.4037 92.6371 18.2507 93.972 17.4645C95.3263 16.6808 96.8685 16.2892 98.5985 16.2899C100.842 16.2899 102.685 16.8381 104.126 17.9346C105.59 19.0311 106.556 20.5532 107.023 22.5009H103.766C103.485 21.4262 102.836 20.4865 101.934 19.8479C101.046 19.1985 99.9364 18.8741 98.604 18.8747C96.8727 18.8747 95.4741 19.4788 94.408 20.6869C93.3426 21.8753 92.8099 23.5655 92.8099 25.7572C92.8099 27.9741 93.3426 29.6866 94.408 30.8947C95.4734 32.1028 96.8721 32.7069 98.604 32.7069C99.9364 32.7069 101.046 32.3935 101.934 31.7668C102.822 31.14 103.433 30.2453 103.766 29.0826H107.029C106.542 30.9616 105.565 32.4723 104.098 33.6148C102.633 34.7333 100.802 35.2929 98.604 35.2935C96.8727 35.2935 95.3305 34.9017 93.9775 34.1179C92.6438 33.3305 91.5598 32.1765 90.8524 30.7908C90.0947 29.3576 89.714 27.6794 89.7104 25.7563ZM127.248 16.5925V34.99H124.219V32.2681C123.629 33.2201 122.788 33.9875 121.789 34.4841C120.733 35.0071 119.57 35.2715 118.393 35.2558C116.973 35.2558 115.696 34.9648 114.562 34.3829C113.424 33.771 112.487 32.8376 111.866 31.6968C111.223 30.5096 110.902 29.066 110.901 27.3661V16.5925H113.896V26.9632C113.896 28.7759 114.353 30.1751 115.265 31.1606C116.177 32.1215 117.42 32.602 118.995 32.602C120.614 32.602 121.891 32.0985 122.826 31.0916C123.76 30.0846 124.226 28.6189 124.223 26.6946V16.5925H127.248ZM138.822 35.2935C137.424 35.2935 136.17 35.0587 135.061 34.5889C133.951 34.0983 133.074 33.4265 132.43 32.5735C131.788 31.7064 131.417 30.6657 131.365 29.5848H134.494C134.583 30.5047 135.004 31.2547 135.756 31.8348C136.533 32.4162 137.543 32.7072 138.785 32.7078C139.94 32.7078 140.85 32.4505 141.514 31.936C142.178 31.4215 142.513 30.7708 142.518 29.984C142.518 29.1794 142.162 28.5858 141.451 28.2032C140.739 27.7984 139.639 27.4065 138.151 27.0276C137.019 26.7417 135.906 26.3828 134.819 25.9531C133.979 25.5722 133.232 25.0109 132.63 24.3084C132.029 23.5688 131.73 22.6073 131.73 21.4237C131.726 20.4944 132.018 19.5883 132.563 18.8388C133.116 18.0551 133.904 17.4397 134.926 16.9926C135.948 16.5229 137.114 16.288 138.423 16.288C140.441 16.288 142.072 16.8025 143.316 17.8316C144.559 18.8606 145.225 20.2711 145.314 22.063H142.286C142.219 21.1014 141.83 20.329 141.12 19.7458C140.434 19.1645 139.502 18.8735 138.324 18.8729C137.237 18.8729 136.371 19.108 135.726 19.5784C135.082 20.0488 134.76 20.6669 134.76 21.4329C134.743 21.9918 134.946 22.5349 135.325 22.9433C135.754 23.3423 136.251 23.6604 136.791 23.8825C137.391 24.1088 138.212 24.3664 139.254 24.6552C140.564 25.014 141.628 25.3721 142.446 25.7296C143.262 26.0609 143.983 26.592 144.544 27.275C145.144 27.9667 145.454 28.8713 145.476 29.9886C145.488 30.9608 145.197 31.9122 144.644 32.7087C144.089 33.5145 143.3 34.1526 142.279 34.623C141.281 35.0712 140.126 35.2951 138.813 35.2945L138.822 35.2935ZM157.167 23.1724C157.167 20.8451 157.666 18.7747 158.666 16.9614C159.621 15.1675 161.066 13.6868 162.829 12.6941C164.627 11.6638 166.658 11.1487 168.921 11.1487C171.696 11.1487 174.071 11.8873 176.047 13.3647C178.023 14.842 179.343 16.8565 180.008 19.4082H173.75C173.282 18.427 172.616 17.6773 171.752 17.1591C170.91 16.644 169.945 16.3864 168.855 16.3864C167.101 16.3864 165.68 17.0022 164.594 18.2336C163.507 19.465 162.963 21.11 162.963 23.1687C162.963 25.2274 163.506 26.8727 164.594 28.1047C165.681 29.3367 167.102 29.9521 168.855 29.9509C169.943 29.9509 170.909 29.6934 171.752 29.1782C172.618 28.6637 173.284 27.914 173.75 26.9291H180.008C179.34 29.4809 178.019 31.4954 176.047 32.9727C174.071 34.4279 171.696 35.1553 168.921 35.1546C166.659 35.1546 164.628 34.6512 162.829 33.6442C161.077 32.6394 159.636 31.1633 158.668 29.3806C157.667 27.5678 157.167 25.4975 157.167 23.1696V23.1724ZM191.949 35.2558C190.128 35.2558 188.486 34.864 187.023 34.0802C185.593 33.3062 184.406 32.1433 183.599 30.7236C182.778 29.2684 182.368 27.5672 182.367 25.6201C182.367 23.697 182.788 22.0072 183.629 20.5507C184.437 19.1069 185.64 17.9287 187.095 17.1573C188.56 16.3736 190.202 15.9817 192.021 15.9817C193.84 15.9817 195.482 16.3736 196.946 17.1573C198.402 17.9286 199.605 19.1068 200.413 20.5507C201.257 22.0053 201.678 23.6952 201.674 25.6201C201.671 27.5451 201.236 29.2463 200.371 30.7236C199.549 32.1579 198.336 33.3234 196.875 34.0812C195.414 34.8643 193.773 35.2558 191.951 35.2558H191.949ZM191.949 30.2885C192.468 30.2967 192.983 30.1931 193.46 29.9847C193.936 29.7762 194.364 29.4678 194.713 29.0798C195.489 28.2752 195.877 27.1226 195.877 25.622C195.877 24.1214 195.501 22.9681 194.748 22.1623C194.407 21.7737 193.986 21.4643 193.515 21.2556C193.043 21.0469 192.533 20.9439 192.018 20.9536C190.908 20.9536 189.987 21.3565 189.255 22.1623C188.522 22.9461 188.155 24.0987 188.156 25.6201C188.156 27.1208 188.511 28.2737 189.22 29.0789C189.562 29.4677 189.983 29.7771 190.454 29.9858C190.926 30.1945 191.437 30.2974 191.951 30.2876L191.949 30.2885ZM216.007 16.0516C218.184 16.0516 219.917 16.7679 221.206 18.2004C222.515 19.6109 223.169 21.5583 223.169 24.0426V34.9891H217.514V24.8143C217.514 23.5615 217.192 22.5879 216.547 21.8937C215.902 21.1995 215.037 20.8524 213.952 20.8524C212.864 20.8524 211.998 21.1995 211.355 21.8937C210.712 22.5879 210.389 23.5615 210.388 24.8143V34.9872H204.691V16.2531H210.383V18.7367C210.979 17.8921 211.784 17.2197 212.718 16.7866C213.696 16.296 214.795 16.0507 216.015 16.0507L216.007 16.0516ZM238.446 16.0516C240.621 16.0516 242.352 16.7679 243.639 18.2004C244.949 19.6109 245.604 21.5583 245.604 24.0426V34.9891H239.944V24.8143C239.944 23.5615 239.622 22.5879 238.978 21.8937C238.334 21.1995 237.469 20.8524 236.381 20.8524C235.295 20.8524 234.429 21.1995 233.784 21.8937C233.139 22.5879 232.817 23.5615 232.819 24.8143V34.9872H227.125V16.2531H232.819V18.7367C233.413 17.892 234.216 17.2193 235.149 16.7857C236.127 16.2951 237.226 16.0498 238.447 16.0498L238.446 16.0516ZM267.073 25.3184C267.071 25.8795 267.038 26.44 266.973 26.9972H254.094C254.183 28.1624 254.548 29.0577 255.188 29.6832C255.857 30.2891 256.669 30.5918 257.623 30.5912C259.044 30.5912 260.032 29.9868 260.586 28.7781H266.644C266.324 30.0148 265.734 31.1635 264.916 32.1398C264.098 33.1161 263.073 33.8951 261.917 34.4197C260.701 34.979 259.336 35.2586 257.823 35.2586C256.003 35.2586 254.383 34.867 252.963 34.0839C251.556 33.3117 250.4 32.1445 249.636 30.7236C248.836 29.2684 248.436 27.5672 248.437 25.6201C248.439 23.6731 248.827 21.9707 249.602 20.513C250.367 19.0929 251.523 17.9266 252.932 17.1555C254.353 16.3717 255.984 15.9802 257.825 15.9808C259.624 15.9808 261.223 16.3613 262.621 17.1223C263.999 17.864 265.133 18.9959 265.882 20.3787C266.68 21.7892 267.079 23.4342 267.08 25.3138L267.073 25.3184ZM261.245 23.8034C261.245 22.8185 260.912 22.0351 260.247 21.4531C259.582 20.8711 258.75 20.5798 257.751 20.5792C256.798 20.5792 255.988 20.8592 255.321 21.4191C254.677 21.9796 254.278 22.7744 254.122 23.8034H261.245ZM268.943 25.6155C268.943 23.6691 269.331 21.9679 270.109 20.5121C270.867 19.0989 272.011 17.9342 273.405 17.1555C274.825 16.3717 276.445 15.9799 278.265 15.9799C280.597 15.9799 282.539 16.5953 284.092 17.8261C285.667 19.0568 286.699 20.792 287.189 23.0316H281.13C280.619 21.5978 279.632 20.881 278.168 20.881C277.124 20.881 276.291 21.2949 275.67 22.1228C275.05 22.928 274.739 24.0932 274.737 25.6183C274.735 27.1435 275.046 28.3197 275.671 29.1469C276.292 29.9528 277.125 30.3557 278.169 30.3557C279.632 30.3557 280.62 29.6394 281.132 28.2068H287.188C286.701 30.3998 285.669 32.1246 284.092 33.3811C282.515 34.6377 280.574 35.2635 278.27 35.2586C276.451 35.2586 274.831 34.8667 273.409 34.083C272.015 33.3038 270.871 32.1388 270.113 30.7255C269.336 29.2702 268.947 27.5694 268.947 25.6229L268.943 25.6155ZM300.589 30.1119V34.9799H297.692C295.625 34.9799 294.015 34.4761 292.863 33.4685C291.708 32.4401 291.13 30.7718 291.13 28.4635V21.0208H288.866V16.2531H291.13V11.6822H296.827V16.2494H300.559V21.0171H296.83V28.5371C296.83 29.0964 296.965 29.5002 297.23 29.7458C297.495 29.9914 297.94 30.1137 298.562 30.1137L300.589 30.1119Z" fill="#F39200"/>
</svg>
