<svg width="303" height="48" viewBox="0 0 303 48" fill="none" xmlns="http://www.w3.org/2000/svg">
<path d="M17.7268 1.04538L39.1553 13.2635C39.248 13.3164 39.3249 13.3926 39.3784 13.4846C39.432 13.5765 39.4602 13.6809 39.4602 13.7872V21.2466C39.46 21.4066 39.3961 21.56 39.2824 21.673C39.1688 21.786 39.0148 21.8495 38.8542 21.8495C38.7513 21.8507 38.6498 21.8255 38.5596 21.7762L25.2901 14.4173C25.1498 14.3396 24.9844 14.3204 24.8299 14.364C24.6755 14.4076 24.5447 14.5104 24.4661 14.6498C24.4174 14.7399 24.3921 14.8408 24.3925 14.9432V22.2434C24.3922 22.348 24.4192 22.4508 24.4709 22.5418C24.5225 22.6329 24.597 22.709 24.687 22.7627L39.0132 31.2079C39.1492 31.288 39.2619 31.4019 39.3402 31.5384C39.4186 31.675 39.4599 31.8295 39.4602 31.9868V35.6271C39.4594 35.7951 39.4116 35.9595 39.3223 36.102C39.2329 36.2445 39.1055 36.3594 38.9543 36.4339L36.1097 37.8495C35.9725 37.918 35.8201 37.9507 35.6667 37.9447C35.5134 37.9387 35.364 37.8941 35.2327 37.815L17.109 26.9105C17.0199 26.8572 16.946 26.782 16.8944 26.6921C16.8428 26.6022 16.8153 26.5006 16.8145 26.3971V1.56908C16.8142 1.46287 16.842 1.35848 16.8952 1.26643C16.9484 1.17438 17.025 1.09794 17.1173 1.04481C17.2097 0.99169 17.3144 0.963768 17.4211 0.963867C17.5277 0.963967 17.6324 0.992083 17.7246 1.04538H17.7268Z" fill="#111827" stroke="#1D1D1B" stroke-width="0.81" stroke-miterlimit="10"/>
<path d="M1.90353 10.0656L8.68849 13.851C8.78143 13.9032 8.85899 13.9787 8.91339 14.0701C8.9678 14.1615 8.99715 14.2655 8.99851 14.3718L9.1664 31.3956C9.1681 31.552 9.21035 31.7053 9.28905 31.8406C9.36775 31.976 9.48024 32.0887 9.61559 32.168L26.1627 41.8337C26.2968 41.9114 26.4086 42.0222 26.4875 42.1553C26.5664 42.2884 26.6097 42.4394 26.6132 42.5939C26.6168 42.7485 26.5805 42.9013 26.5078 43.0379C26.4351 43.1744 26.3284 43.2902 26.198 43.3739L20.9749 46.7538C20.8363 46.8434 20.6759 46.8938 20.5107 46.8994C20.3456 46.9051 20.182 46.8659 20.0375 46.786L1.46613 36.4646C1.32473 36.3862 1.20696 36.2715 1.125 36.1325C1.04305 35.9935 0.999892 35.8352 1 35.674V10.5893C0.999783 10.4838 1.02737 10.38 1.07999 10.2885C1.13262 10.1969 1.20845 10.1207 1.29991 10.0675C1.39137 10.0142 1.49525 9.98584 1.60117 9.98512C1.7071 9.9844 1.81136 10.0114 1.90353 10.0634V10.0656Z" fill="#111827" stroke="#1D1D1B" stroke-width="0.81" stroke-miterlimit="10"/>
<path d="M59.2831 33.1127H67.4208V35.5691H56.25V12.4244H59.2824L59.2831 33.1127ZM78.6086 35.8691C76.8967 35.8691 75.3408 35.4813 73.9407 34.7058C72.5657 33.9344 71.4344 32.7958 70.6741 31.4184C69.8955 29.9793 69.5062 28.3192 69.5062 26.4381C69.5062 24.58 69.9066 22.9419 70.7073 21.5239C71.529 20.0848 72.6402 18.989 74.0408 18.2365C75.4414 17.459 77.0087 17.0702 78.7426 17.0702C80.4765 17.0702 82.0435 17.4585 83.4436 18.235C84.8354 18.9792 85.9816 20.1084 86.744 21.4865C87.5653 22.9045 87.976 24.5546 87.976 26.4367C87.976 28.3188 87.5548 29.9791 86.7124 31.4177C85.9195 32.8055 84.7522 33.9443 83.3427 34.7051C81.921 35.4816 80.343 35.8696 78.6086 35.8691ZM78.6086 33.2117C79.6791 33.2165 80.7338 32.954 81.6763 32.4482C82.6316 31.9392 83.3984 31.1754 83.9767 30.1568C84.5776 29.1378 84.8778 27.8982 84.8773 26.4381C84.8768 24.978 84.5877 23.738 84.0099 22.718C83.4316 21.6999 82.6756 20.9471 81.7418 20.4596C80.8128 19.9521 79.769 19.6893 78.7094 19.6961C77.6385 19.6864 76.5829 19.9492 75.6424 20.4596C74.7308 20.9486 73.9974 21.7014 73.4421 22.718C72.8869 23.7346 72.6088 24.9746 72.6078 26.4381C72.6078 27.9202 72.8746 29.1708 73.4083 30.1898C73.964 31.2084 74.6974 31.9724 75.6086 32.4819C76.5317 32.9708 77.5631 33.2216 78.6086 33.2117ZM90.8324 26.4367C90.8324 24.5556 91.2104 22.9175 91.9664 21.5224C92.7214 20.1044 93.7659 19.0086 95.0997 18.235C96.4561 17.4585 98.0005 17.0702 99.7329 17.0702C101.979 17.0702 103.824 17.6125 105.268 18.6971C106.734 19.7816 107.701 21.287 108.169 23.2131H104.907C104.626 22.1505 103.976 21.2214 103.073 20.5902C102.184 19.9477 101.072 19.6264 99.7381 19.6264C98.0047 19.6264 96.6056 20.2242 95.5408 21.4197C94.474 22.5933 93.9406 24.2649 93.9406 26.4345C93.9406 28.6266 94.474 30.3202 95.5408 31.5152C96.6075 32.7103 98.0066 33.3081 99.7381 33.3086C101.072 33.3086 102.184 32.9985 103.073 32.3785C103.962 31.7585 104.573 30.8734 104.907 29.7234H108.174C107.683 31.5815 106.705 33.0758 105.24 34.2063C103.773 35.3124 101.939 35.8659 99.7381 35.8669C98.0047 35.8669 96.4603 35.4791 95.1048 34.7036C93.7715 33.93 92.7271 32.8342 91.9716 31.4162C91.216 29.9982 90.8363 28.3383 90.8324 26.4367ZM128.421 17.3754V35.5691H125.388V32.8802C124.797 33.8209 123.956 34.5797 122.957 35.0718C121.9 35.5885 120.734 35.8501 119.556 35.8354C118.133 35.8354 116.854 35.5476 115.722 34.9721C114.589 34.3745 113.689 33.489 113.021 32.3154C112.377 31.1419 112.055 29.7138 112.055 28.0312V17.3754H115.055V27.6322C115.055 29.4253 115.511 30.8091 116.422 31.7837C117.333 32.7342 118.578 33.2098 120.156 33.2103C121.776 33.2103 123.054 32.712 123.991 31.7155C124.927 30.7189 125.393 29.2691 125.39 27.366V17.3754H128.421ZM140.01 35.872C138.61 35.872 137.355 35.6398 136.244 35.1752C135.133 34.6863 134.255 34.022 133.61 33.1824C132.967 32.3247 132.596 31.2956 132.543 30.2265H135.677C135.766 31.1341 136.187 31.8756 136.941 32.4511C137.719 33.0271 138.729 33.3152 139.973 33.3152C141.129 33.3152 142.04 33.0606 142.706 32.5516C143.373 32.0426 143.706 31.3991 143.707 30.6211C143.707 29.8246 143.351 29.2378 142.64 28.8608C141.929 28.4628 140.829 28.0752 139.34 27.6982C137.983 27.3437 136.872 26.9895 136.005 26.6354C135.161 26.2598 134.41 25.7045 133.806 25.0086C133.205 24.2751 132.904 23.3243 132.904 22.1561C132.901 21.2365 133.193 20.3399 133.738 19.5978C134.292 18.8223 135.081 18.2135 136.105 17.7714C137.127 17.3064 138.294 17.0739 139.605 17.0739C141.628 17.0739 143.261 17.5829 144.506 18.601C145.751 19.6191 146.418 21.0139 146.507 22.7855H143.474C143.407 21.8339 143.019 21.0701 142.307 20.4941C141.62 19.9181 140.687 19.6303 139.509 19.6308C138.421 19.6308 137.554 19.8631 136.909 20.3276C136.264 20.7921 135.943 21.4021 135.947 22.1576C135.947 22.7551 136.136 23.2534 136.513 23.6524C136.943 24.0471 137.44 24.3618 137.981 24.5817C138.582 24.8052 139.404 25.0597 140.447 25.3453C141.76 25.7003 142.827 26.0548 143.648 26.4088C144.465 26.7361 145.188 27.2612 145.75 27.9366C146.349 28.6212 146.66 29.516 146.683 30.6211C146.694 31.5826 146.402 32.5234 145.849 33.3115C145.293 34.109 144.504 34.74 143.482 35.2046C142.482 35.6476 141.326 35.8691 140.014 35.8691L140.01 35.872ZM158.384 23.8835C158.384 21.5813 158.884 19.5335 159.884 17.7399C160.841 15.9674 162.287 14.5044 164.051 13.5232C165.852 12.5046 167.886 11.9954 170.153 11.9954C172.93 11.9954 175.308 12.7259 177.287 14.187C179.266 15.648 180.589 17.6404 181.255 20.164H174.987C174.518 19.19 173.852 18.4487 172.986 17.9401C172.144 17.4301 171.177 17.1751 170.086 17.1751C168.329 17.1751 166.907 17.7842 165.818 19.0022C164.73 20.2203 164.185 21.8473 164.185 23.8835C164.185 25.9196 164.729 27.5469 165.818 28.7654C166.907 29.984 168.329 30.5928 170.086 30.5918C171.175 30.5918 172.142 30.337 172.986 29.8275C173.854 29.319 174.52 28.5777 174.987 27.6036H181.255C180.588 30.1272 179.265 32.1196 177.287 33.5807C175.309 35.0197 172.931 35.739 170.153 35.7385C167.886 35.7385 165.852 35.2405 164.051 34.2445C162.296 33.2507 160.854 31.7905 159.884 30.027C158.884 28.2324 158.383 26.1836 158.384 23.8805V23.8835ZM193.214 35.8346C191.392 35.8346 189.747 35.4471 188.281 34.6721C186.848 33.9069 185.659 32.7568 184.849 31.3524C184.028 29.9133 183.617 28.2307 183.616 26.3046C183.616 24.403 184.037 22.7314 184.879 21.2899C185.687 19.8627 186.891 18.6977 188.347 17.9343C189.814 17.1592 191.459 16.7715 193.281 16.771C195.102 16.7705 196.747 17.1583 198.214 17.9343C199.67 18.6978 200.873 19.8628 201.681 21.2899C202.527 22.73 202.948 24.4015 202.945 26.3046C202.942 28.2078 202.508 29.8903 201.644 31.3524C200.821 32.771 199.606 33.9239 198.144 34.6735C196.681 35.4476 195.037 35.8346 193.214 35.8346H193.214ZM193.214 30.9204C193.734 30.9281 194.25 30.8255 194.728 30.6194C195.205 30.4133 195.633 30.1083 195.982 29.7248C196.76 28.9283 197.149 27.7882 197.149 26.3046C197.149 24.8211 196.771 23.681 196.015 22.8845C195.673 22.4996 195.252 22.1934 194.78 21.9869C194.308 21.7805 193.796 21.6788 193.281 21.6889C192.169 21.6889 191.247 22.0874 190.514 22.8845C189.778 23.659 189.409 24.7991 189.409 26.3046C189.409 27.7877 189.765 28.928 190.476 29.7256C190.818 30.1101 191.239 30.4162 191.711 30.6226C192.183 30.8291 192.695 30.9309 193.211 30.9211L193.214 30.9204ZM217.306 16.8377C219.484 16.8377 221.218 17.5468 222.508 18.9648C223.82 20.3599 224.475 22.2862 224.474 24.7438V35.5669H218.804V25.5052C218.804 24.2666 218.482 23.3035 217.836 22.616C217.191 21.9285 216.325 21.5862 215.237 21.5892C214.147 21.5892 213.28 21.9314 212.636 22.616C211.992 23.3006 211.671 24.2636 211.672 25.5052V35.5691H205.971V17.0394H211.672V19.4973C212.267 18.6615 213.072 17.9961 214.006 17.5675C214.988 17.0834 216.089 16.8409 217.309 16.8399L217.306 16.8377ZM239.772 16.8377C241.951 16.8377 243.684 17.5468 244.973 18.9648C246.285 20.3599 246.941 22.2862 246.94 24.7438V35.5669H241.27V25.5052C241.27 24.2666 240.948 23.3035 240.303 22.616C239.659 21.9285 238.792 21.5862 237.702 21.5892C236.614 21.5892 235.747 21.9314 235.102 22.616C234.456 23.3006 234.135 24.2636 234.137 25.5052V35.5691H228.436V17.0394H234.138V19.4973C234.732 18.6615 235.537 17.9961 236.471 17.5675C237.451 17.0834 238.551 16.8409 239.774 16.8399L239.772 16.8377ZM268.439 26.0061C268.437 26.5611 268.403 27.1156 268.338 27.6667H255.441C255.53 28.8182 255.897 29.7038 256.541 30.3233C257.208 30.9218 258.021 31.2211 258.979 31.2211C260.403 31.2211 261.392 30.6233 261.947 29.4278H268.012C267.692 30.6508 267.1 31.7868 266.281 32.7524C265.462 33.7181 264.437 34.4888 263.28 35.008C262.058 35.561 260.691 35.8376 259.179 35.8376C257.357 35.8376 255.734 35.4503 254.312 34.6757C252.902 33.9121 251.743 32.7585 250.976 31.3539C250.176 29.9148 249.776 28.2322 249.777 26.3061C249.777 24.38 250.166 22.6974 250.944 21.2584C251.71 19.8539 252.867 18.7006 254.277 17.9379C255.701 17.1629 257.335 16.7751 259.178 16.7747C260.979 16.7747 262.58 17.1512 263.979 17.9042C265.36 18.6383 266.496 19.7579 267.247 21.1256C268.045 22.5197 268.444 24.147 268.445 26.0076L268.439 26.0061ZM262.604 24.5069C262.604 23.5338 262.27 22.7593 261.604 22.1833C260.937 21.6073 260.104 21.319 259.105 21.3185C258.151 21.3185 257.34 21.5955 256.671 22.1495C256.027 22.7035 255.627 23.4893 255.471 24.5069H262.604ZM270.312 26.3002C270.312 24.3751 270.701 22.6925 271.479 21.2525C272.239 19.8545 273.384 18.7023 274.78 17.9321C276.204 17.157 277.827 16.7695 279.648 16.7695C281.982 16.7695 283.927 17.3783 285.482 18.5959C287.059 19.8134 288.093 21.5293 288.583 23.7434H282.515C282.003 22.3253 281.014 21.6163 279.548 21.6163C278.503 21.6163 277.669 22.0256 277.045 22.8441C276.422 23.6417 276.111 24.793 276.11 26.298C276.11 27.8031 276.422 28.9664 277.045 29.7879C277.667 30.5854 278.502 30.9839 279.549 30.9835C281.016 30.9835 282.004 30.2744 282.516 28.8564H288.582C288.091 31.0255 287.057 32.7316 285.481 33.9745C283.904 35.2175 281.961 35.8363 279.651 35.831C277.829 35.831 276.206 35.4434 274.783 34.6684C273.387 33.8984 272.242 32.7461 271.482 31.348C270.704 29.9084 270.314 28.2261 270.315 26.301L270.312 26.3002ZM302 30.7473V35.5618H299.098C297.032 35.5618 295.42 35.0637 294.263 34.0677C293.108 33.0496 292.53 31.3993 292.53 29.1168V21.7549H290.263V17.0394H292.53V12.5227H298.234V17.0394H301.968V21.7549H298.234V29.1931C298.234 29.7471 298.367 30.1458 298.634 30.3893C298.9 30.6329 299.345 30.7551 299.967 30.7561L302 30.7473Z" fill="#111827" stroke="#1D1D1B" stroke-width="0.81" stroke-miterlimit="10"/>
</svg>
