<svg width="76" height="91" viewBox="0 0 76 91" fill="none" xmlns="http://www.w3.org/2000/svg">
<path d="M32.8674 0.428688L74.9727 24.5304C75.1547 24.6342 75.306 24.7845 75.4111 24.9658C75.5163 25.1472 75.5715 25.3531 75.5711 25.5627V40.2768C75.5715 40.484 75.5175 40.6877 75.4147 40.8676C75.3119 41.0475 75.1637 41.1973 74.9849 41.3022C74.8061 41.4074 74.6029 41.4641 74.3954 41.4666C74.1879 41.469 73.9833 41.4172 73.8021 41.3162L47.7301 26.8051C47.4542 26.6514 47.1285 26.6136 46.8247 26.6999C46.5209 26.7861 46.2638 26.9895 46.1098 27.2653C46.0131 27.4419 45.9614 27.6396 45.9593 27.841V42.2383C45.9602 42.4451 46.0144 42.6481 46.1168 42.8278C46.2192 43.0074 46.3663 43.1576 46.5438 43.2637L74.698 59.9252C74.9646 60.0834 75.1854 60.3082 75.3388 60.5776C75.4922 60.8469 75.5728 61.1516 75.5729 61.4615V68.6357C75.572 68.9678 75.4787 69.2931 75.3035 69.5753C75.1283 69.8574 74.878 70.0852 74.5807 70.2333L68.9901 73.0329C68.7192 73.1687 68.418 73.2331 68.1152 73.2202C67.8143 73.2074 67.5214 73.1196 67.2631 72.9647L31.646 51.4422C31.4704 51.337 31.325 51.188 31.2241 51.0098C31.1232 50.8316 31.0702 50.6303 31.0703 50.4256V1.46106C31.0694 1.25122 31.1237 1.04483 31.2278 0.862634C31.3322 0.679516 31.4839 0.527822 31.667 0.423434C31.8487 0.317523 32.0552 0.261719 32.2654 0.261719C32.4757 0.261719 32.6822 0.317523 32.8639 0.423434L32.8674 0.428688Z" fill="#F39200"/>
<path d="M1.76029 18.2206L15.0937 25.6887C15.2766 25.7908 15.4289 25.9401 15.5347 26.1209C15.6437 26.3007 15.704 26.5057 15.7097 26.7158L16.0404 60.2961C16.042 60.6039 16.1234 60.906 16.2768 61.1728C16.4301 61.4397 16.6501 61.6621 16.9153 61.8185L49.4335 80.8912C49.695 81.0455 49.9126 81.2641 50.0658 81.5263C50.2189 81.7885 50.3024 82.0855 50.3084 82.389C50.3153 82.6933 50.2443 82.9944 50.1022 83.2635C49.9601 83.5327 49.7516 83.7611 49.4965 83.9271L39.2427 90.5956C38.9698 90.7722 38.6541 90.8714 38.3292 90.8825C38.0044 90.8936 37.6826 90.8162 37.3984 90.6586L0.915139 70.298C0.637848 70.1428 0.406899 69.9166 0.246054 69.6426C0.0852091 69.3686 0.000279424 69.0566 0 68.7389V19.2582C0.00224465 18.9465 0.126341 18.6481 0.345751 18.4267C0.565161 18.2053 0.862474 18.0786 1.17412 18.0736C1.37893 18.0711 1.58089 18.1217 1.76029 18.2206Z" fill="#F39200"/>
</svg>
